<svg data-v-423bf9ae="" xmlns="http://www.w3.org/2000/svg" viewBox="0 0 484 90" class="iconLeftSlogan"><!----><!----><!----><g data-v-423bf9ae="" id="d7a28778-875e-405a-a7c7-18cecb605d4c" fill="black" transform="matrix(6.079027426108357,0,0,6.079027426108357,126.3504601549416,-4.863222669005431)"><path d="M2.56 6.71L2.56 10.50L1.16 10.50L1.16 1.36L6.02 1.36L5.81 2.60L2.56 2.60L2.56 5.46L5.85 5.45L5.85 6.69L2.56 6.71ZM2.56 6.71L2.56 10.50L1.16 10.50L1.16 1.36L6.02 1.36L5.81 2.60L2.56 2.60L2.56 5.46L5.85 5.45L5.85 6.69L2.56 6.71ZM11.77 3.30L11.77 4.47L11.77 4.47Q11.68 4.44 11.56 4.41L11.56 4.41L11.56 4.41Q11.47 4.38 11.35 4.36L11.35 4.36L11.35 4.36Q11.23 4.34 11.12 4.34L11.12 4.34L11.12 4.34Q10.51 4.34 10.12 4.61L10.12 4.61L10.12 4.61Q9.73 4.89 9.51 5.31L9.51 5.31L9.51 5.31Q9.28 5.73 9.19 6.24L9.19 6.24L9.19 6.24Q9.10 6.76 9.10 7.25L9.10 7.25L9.10 10.50L7.78 10.50L7.78 3.36L8.90 3.36L9.06 4.47L9.06 4.47Q9.25 4.12 9.49 3.84L9.49 3.84L9.49 3.84Q9.73 3.57 10.05 3.40L10.05 3.40L10.05 3.40Q10.37 3.23 10.79 3.20L10.79 3.20L10.79 3.20Q11.21 3.16 11.77 3.30L11.77 3.30ZM16.60 10.67L16.60 10.67L16.60 10.67Q15.40 10.67 14.65 10.31L14.65 10.31L14.65 10.31Q13.90 9.95 13.48 9.39L13.48 9.39L13.48 9.39Q13.06 8.83 12.91 8.14L12.91 8.14L12.91 8.14Q12.75 7.45 12.75 6.78L12.75 6.78L12.75 6.78Q12.75 6.10 12.97 5.46L12.97 5.46L12.97 5.46Q13.19 4.82 13.60 4.31L13.60 4.31L13.60 4.31Q14.01 3.81 14.62 3.50L14.62 3.50L14.62 3.50Q15.22 3.19 16.00 3.19L16.00 3.19L16.00 3.19Q16.94 3.19 17.57 3.52L17.57 3.52L17.57 3.52Q18.20 3.85 18.58 4.38L18.58 4.38L18.58 4.38Q18.96 4.90 19.11 5.54L19.11 5.54L19.11 5.54Q19.26 6.17 19.26 6.78L19.26 6.78L19.26 7.22L14.15 7.22L14.15 7.22Q14.21 7.90 14.46 8.41L14.46 8.41L14.46 8.41Q14.57 8.64 14.74 8.86L14.74 8.86L14.74 8.86Q14.91 9.07 15.15 9.24L15.15 9.24L15.15 9.24Q15.40 9.41 15.72 9.51L15.72 9.51L15.72 9.51Q16.04 9.60 16.46 9.60L16.46 9.60L16.46 9.60Q16.91 9.60 17.31 9.50L17.31 9.50L17.31 9.50Q17.71 9.39 18.02 9.27L18.02 9.27L18.02 9.27Q18.38 9.11 18.69 8.92L18.69 8.92L18.70 10.12L18.70 10.12Q18.70 10.12 18.54 10.21L18.54 10.21L18.54 10.21Q18.38 10.30 18.10 10.40L18.10 10.40L18.10 10.40Q17.82 10.50 17.44 10.58L17.44 10.58L17.44 10.58Q17.05 10.67 16.60 10.67ZM14.15 6.24L17.86 6.24L17.86 6.24Q17.86 5.89 17.76 5.54L17.76 5.54L17.76 5.54Q17.65 5.18 17.43 4.89L17.43 4.89L17.43 4.89Q17.21 4.61 16.86 4.43L16.86 4.43L16.86 4.43Q16.51 4.26 16.00 4.26L16.00 4.26L16.00 4.26Q15.57 4.26 15.22 4.43L15.22 4.43L15.22 4.43Q14.88 4.61 14.64 4.89L14.64 4.89L14.64 4.89Q14.41 5.18 14.28 5.54L14.28 5.54L14.28 5.54Q14.15 5.89 14.15 6.24L14.15 6.24ZM25.20 3.91L24.77 4.89L24.77 4.89Q23.94 4.26 23.03 4.26L23.03 4.26L23.03 4.26Q22.53 4.26 22.23 4.46L22.23 4.46L22.23 4.46Q21.92 4.66 21.92 5.15L21.92 5.15L21.92 5.15Q21.92 5.40 22.04 5.58L22.04 5.58L22.04 5.58Q22.16 5.75 22.36 5.88L22.36 5.88L22.36 5.88Q22.55 6.01 22.81 6.10L22.81 6.10L22.81 6.10Q23.06 6.20 23.34 6.30L23.34 6.30L23.34 6.30Q23.70 6.43 24.08 6.58L24.08 6.58L24.08 6.58Q24.46 6.73 24.76 6.98L24.76 6.98L24.76 6.98Q25.06 7.22 25.25 7.59L25.25 7.59L25.25 7.59Q25.44 7.97 25.44 8.54L25.44 8.54L25.44 8.54Q25.44 9.09 25.23 9.49L25.23 9.49L25.23 9.49Q25.03 9.90 24.69 10.16L24.69 10.16L24.69 10.16Q24.35 10.42 23.91 10.54L23.91 10.54L23.91 10.54Q23.46 10.67 23.00 10.67L23.00 10.67L23.00 10.67Q22.30 10.67 21.63 10.39L21.63 10.39L21.63 10.39Q20.96 10.11 20.48 9.58L20.48 9.58L20.90 8.65L20.90 8.65Q21.35 9.10 21.92 9.35L21.92 9.35L21.92 9.35Q22.48 9.60 23.03 9.60L23.03 9.60L23.03 9.60Q23.56 9.60 23.91 9.39L23.91 9.39L23.91 9.39Q24.25 9.17 24.26 8.67L24.26 8.67L24.26 8.67Q24.26 8.40 24.14 8.20L24.14 8.20L24.14 8.20Q24.02 8.01 23.83 7.86L23.83 7.86L23.83 7.86Q23.63 7.71 23.37 7.61L23.37 7.61L23.37 7.61Q23.10 7.50 22.82 7.39L22.82 7.39L22.82 7.39Q22.46 7.27 22.09 7.11L22.09 7.11L22.09 7.11Q21.73 6.96 21.43 6.72L21.43 6.72L21.43 6.72Q21.14 6.48 20.96 6.12L20.96 6.12L20.96 6.12Q20.78 5.75 20.78 5.22L20.78 5.22L20.78 5.22Q20.78 4.68 20.96 4.29L20.96 4.29L20.96 4.29Q21.15 3.91 21.48 3.66L21.48 3.66L21.48 3.66Q21.80 3.42 22.22 3.30L22.22 3.30L22.22 3.30Q22.64 3.19 23.10 3.19L23.10 3.19L23.10 3.19Q23.67 3.19 24.21 3.38L24.21 3.38L24.21 3.38Q24.75 3.57 25.20 3.91L25.20 3.91ZM30.88 3.19L30.88 3.19L30.88 3.19Q32.28 3.19 32.93 4.02L32.93 4.02L32.93 4.02Q33.57 4.84 33.57 6.37L33.57 6.37L33.57 10.50L32.24 10.50L32.24 6.73L32.24 6.73Q32.24 5.46 31.92 4.86L31.92 4.86L31.92 4.86Q31.60 4.26 30.79 4.26L30.79 4.26L30.79 4.26Q30.23 4.26 29.81 4.47L29.81 4.47L29.81 4.47Q29.40 4.68 29.12 5.06L29.12 5.06L29.12 5.06Q28.84 5.45 28.70 5.99L28.70 5.99L28.70 5.99Q28.56 6.52 28.56 7.18L28.56 7.18L28.56 10.50L27.24 10.50L27.24 1.62L28.56 1.62L28.56 4.49L28.56 4.49Q28.90 3.92 29.54 3.56L29.54 3.56L29.54 3.56Q30.18 3.19 30.88 3.19ZM42.20 9.52L42.20 10.50L42.20 10.50Q41.97 10.58 41.69 10.63L41.69 10.63L41.69 10.63Q41.41 10.67 41.17 10.67L41.17 10.67L41.17 10.67Q40.46 10.67 40.08 10.25L40.08 10.25L40.08 10.25Q39.70 9.83 39.70 9.03L39.70 9.03L39.70 1.62L41.02 1.62L41.02 9.00L41.02 9.00Q41.02 9.30 41.13 9.44L41.13 9.44L41.13 9.44Q41.23 9.59 41.48 9.59L41.48 9.59L41.48 9.59Q41.62 9.59 41.85 9.57L41.85 9.57L41.85 9.57Q42.08 9.55 42.20 9.52L42.20 9.52ZM45.56 3.36L45.56 10.50L44.24 10.50L44.24 3.36L45.56 3.36ZM45.74 1.65L45.74 1.65L45.74 1.65Q45.74 2.02 45.49 2.27L45.49 2.27L45.49 2.27Q45.23 2.52 44.88 2.52L44.88 2.52L44.88 2.52Q44.52 2.52 44.27 2.27L44.27 2.27L44.27 2.27Q44.02 2.02 44.02 1.65L44.02 1.65L44.02 1.65Q44.02 1.30 44.27 1.05L44.27 1.05L44.27 1.05Q44.52 0.80 44.88 0.80L44.88 0.80L44.88 0.80Q45.23 0.80 45.49 1.05L45.49 1.05L45.49 1.05Q45.74 1.30 45.74 1.65ZM51.28 2.69L51.28 2.69L51.28 2.69Q50.74 2.63 50.43 2.69L50.43 2.69L50.43 2.69Q50.12 2.76 49.96 2.93L49.96 2.93L49.96 2.93Q49.80 3.11 49.76 3.39L49.76 3.39L49.76 3.39Q49.71 3.67 49.71 4.02L49.71 4.02L49.71 4.07L51.06 4.07L50.90 5.14L49.71 5.14L49.71 10.50L48.40 10.50L48.40 5.14L47.15 5.14L47.15 4.07L48.40 4.07L48.40 4.02L48.40 4.02Q48.40 3.53 48.49 3.16L48.49 3.16L48.49 3.16Q48.58 2.80 48.73 2.53L48.73 2.53L48.73 2.53Q48.87 2.27 49.07 2.09L49.07 2.09L49.07 2.09Q49.27 1.92 49.46 1.81L49.46 1.81L49.46 1.81Q49.92 1.55 50.54 1.54L50.54 1.54L50.54 1.54Q50.74 1.54 50.88 1.55L50.88 1.55L50.88 1.55Q51.03 1.57 51.14 1.60L51.14 1.60L51.35 1.64L51.28 2.69ZM56.04 10.67L56.04 10.67L56.04 10.67Q54.84 10.67 54.09 10.31L54.09 10.31L54.09 10.31Q53.34 9.95 52.92 9.39L52.92 9.39L52.92 9.39Q52.50 8.83 52.35 8.14L52.35 8.14L52.35 8.14Q52.19 7.45 52.19 6.78L52.19 6.78L52.19 6.78Q52.19 6.10 52.41 5.46L52.41 5.46L52.41 5.46Q52.63 4.82 53.04 4.31L53.04 4.31L53.04 4.31Q53.45 3.81 54.05 3.50L54.05 3.50L54.05 3.50Q54.66 3.19 55.44 3.19L55.44 3.19L55.44 3.19Q56.38 3.19 57.01 3.52L57.01 3.52L57.01 3.52Q57.64 3.85 58.02 4.38L58.02 4.38L58.02 4.38Q58.39 4.90 58.55 5.54L58.55 5.54L58.55 5.54Q58.70 6.17 58.70 6.78L58.70 6.78L58.70 7.22L53.59 7.22L53.59 7.22Q53.65 7.90 53.90 8.41L53.90 8.41L53.90 8.41Q54.01 8.64 54.18 8.86L54.18 8.86L54.18 8.86Q54.35 9.07 54.59 9.24L54.59 9.24L54.59 9.24Q54.84 9.41 55.16 9.51L55.16 9.51L55.16 9.51Q55.48 9.60 55.90 9.60L55.90 9.60L55.90 9.60Q56.35 9.60 56.75 9.50L56.75 9.50L56.75 9.50Q57.15 9.39 57.46 9.27L57.46 9.27L57.46 9.27Q57.82 9.11 58.13 8.92L58.13 8.92L58.14 10.12L58.14 10.12Q58.14 10.12 57.98 10.21L57.98 10.21L57.98 10.21Q57.82 10.30 57.54 10.40L57.54 10.40L57.54 10.40Q57.26 10.50 56.88 10.58L56.88 10.58L56.88 10.58Q56.49 10.67 56.04 10.67ZM53.59 6.24L57.30 6.24L57.30 6.24Q57.30 5.89 57.20 5.54L57.20 5.54L57.20 5.54Q57.09 5.18 56.87 4.89L56.87 4.89L56.87 4.89Q56.64 4.61 56.29 4.43L56.29 4.43L56.29 4.43Q55.94 4.26 55.44 4.26L55.44 4.26L55.44 4.26Q55.01 4.26 54.66 4.43L54.66 4.43L54.66 4.43Q54.32 4.61 54.08 4.89L54.08 4.89L54.08 4.89Q53.84 5.18 53.72 5.54L53.72 5.54L53.72 5.54Q53.59 5.89 53.59 6.24L53.59 6.24Z"></path></g><!----><g data-v-423bf9ae="" id="c3756969-60d8-4bd4-afab-7375f9ab0dc7" transform="matrix(1.1936340488775075,0,0,1.1936340488775075,-2.185149331749976,-14.381698653462287)" stroke="none" fill="black"><path d="M84.1 32.5c4 .6 7.4 2.5 9.9 5.7 2.4 3 3.6 6.5 3.5 10.3-.1 2.7-.4 5.4-1.1 8-1.6 5.8-4.6 10.9-9 14.9-2.7 2.4-5.9 3.2-9.5 2.7-1.5-.2-2.9-.7-4.4-1.1-.3-.1-.6-.1-.9 0-1.1.3-2.2.6-3.3.8-3.8.9-7.2.2-10.3-2.3-1.2-.9-2.1-2-3.1-3.2C53 64.9 51 61 49.7 56.7c-.7-2.3-1.1-4.7-1.2-7.1-.1-1.5-.1-2.9.1-4.4.6-3.7 2.3-6.8 5.1-9.2 3.5-3.1 7.7-4.2 12.3-3.9 1.7.1 3.4.4 5.1.8.3.1.4 0 .4-.3 0-.6-.1-1.3-.2-1.9-.6-2.5-2-4.5-4.3-5.8-.5-.3-.5-.3-.2-.8l.9-1.8c.1-.3.3-.3.5-.2.4.3.8.5 1.2.8 1.6 1.1 2.8 2.5 3.7 4.2.2.3.2.3.4 0 .3-.5.7-.9 1.1-1.3 2.5-2.6 5.6-3.9 9.2-4 2.1-.1 4 .6 6 1.3.2.1.2.2.1.4-1 1.5-2 2.9-3.4 4.1-2.3 1.9-5 3-8.1 3.1-1.4 0-2.7-.2-4-.6-.2-.1-.3-.1-.3.2.2.8.3 1.6.2 2.3 0 .2.1.2.3.2 2.2-.6 4.5-.9 7.2-.9.6.4 1.4.5 2.3.6zm-21.3 5.7c-2.3.3-4.2 1.3-5.8 3-1.7 1.8-2.6 3.9-2.7 6.4 0 .6.1 1.2.6 1.6.5.4 1 .4 1.6.1.5-.3.8-.7.8-1.3 0-.8.1-1.5.4-2.2 1-2.8 3.5-4.6 6.6-4.7.8 0 1.3-.5 1.4-1.2.1-.8-.3-1.5-1-1.7-.3-.1-.5 0-.8-.1-.4 0-.7.1-1.1.1zM37 72.2v-.4c0-2.5-2-4.5-4.5-4.5H7c-2.5 0-4.5 2-4.5 4.5v.4c0 2.5 2 4.5 4.5 4.5h25.6c2.4-.1 4.4-2 4.4-4.5zm-5.8 11v-.4c0-2.5-2-4.5-4.5-4.5h-14c-2.5 0-4.5 2-4.5 4.5v.4c0 2.5 2 4.5 4.5 4.5h14c2.5 0 4.5-2 4.5-4.5zM2.5 27.8v.4c0 2.5 2 4.5 4.5 4.5h25.6c2.5 0 4.5-2 4.5-4.5v-.4c0-2.5-2-4.5-4.5-4.5H7c-2.5.1-4.5 2-4.5 4.5zm5.8-11v.4c0 2.5 2 4.5 4.5 4.5h14c2.5 0 4.5-2 4.5-4.5v-.4c0-2.5-2-4.5-4.5-4.5h-14c-2.5 0-4.5 2-4.5 4.5zm15.9 44.3V38.9c0-2.2-1.8-4-4-4h-.9c-2.2 0-4 1.8-4 4V61c0 2.2 1.8 4 4 4h.9c2.2.1 4-1.7 4-3.9z"></path></g><!----><g data-v-423bf9ae="" id="df4b9b76-5728-4ff4-89cd-a3bd8685835c" fill="black" transform="matrix(2.9440274424799653,0,0,2.9440274424799653,129.69265388492246,52.08056426317904)"><path d="M1.68 7.64L5.60 7.64L5.60 7.24L1.68 7.24L1.68 3.21L5.74 3.21L5.74 2.80L1.26 2.80L1.26 12.60L1.68 12.60ZM14.70 7.70C14.70 6.38 15.11 5.29 15.92 4.41C16.73 3.53 17.76 3.09 19.00 3.09C20.24 3.09 21.27 3.53 22.08 4.41C22.89 5.29 23.30 6.38 23.30 7.70C23.30 9.02 22.89 10.11 22.08 10.99C21.27 11.87 20.24 12.31 19.00 12.31C17.76 12.31 16.73 11.87 15.92 10.99C15.11 10.11 14.70 9.02 14.70 7.70ZM14.28 7.70C14.28 9.16 14.73 10.36 15.62 11.30C16.51 12.24 17.64 12.71 19.00 12.71C20.36 12.71 21.49 12.24 22.38 11.30C23.27 10.36 23.72 9.16 23.72 7.70C23.72 6.24 23.27 5.04 22.38 4.10C21.49 3.16 20.36 2.69 19.00 2.69C17.64 2.69 16.51 3.16 15.62 4.10C14.73 5.04 14.28 6.24 14.28 7.70ZM33.10 2.80ZM32.68 2.80L32.68 12.60L33.10 12.60L33.10 8.48L34.65 8.48L37.77 12.60L38.32 12.60L35.13 8.47C36.02 8.41 36.74 8.15 37.27 7.67C37.81 7.20 38.08 6.52 38.08 5.64C38.08 4.71 37.78 4.00 37.17 3.52C36.56 3.04 35.77 2.80 34.78 2.80ZM33.10 3.21L34.78 3.21C35.64 3.21 36.34 3.41 36.86 3.83C37.38 4.24 37.65 4.85 37.65 5.64C37.65 6.44 37.38 7.04 36.86 7.45C36.34 7.87 35.64 8.08 34.78 8.08L33.10 8.08ZM63.29 2.80L60.28 8.16L57.40 2.80L56.87 2.80L60.06 8.62L60.06 12.60L60.51 12.60L60.51 8.61L63.83 2.80ZM72.16 7.70C72.16 6.38 72.56 5.29 73.37 4.41C74.19 3.53 75.21 3.09 76.45 3.09C77.70 3.09 78.72 3.53 79.53 4.41C80.35 5.29 80.75 6.38 80.75 7.70C80.75 9.02 80.35 10.11 79.53 10.99C78.72 11.87 77.70 12.31 76.45 12.31C75.21 12.31 74.19 11.87 73.37 10.99C72.56 10.11 72.16 9.02 72.16 7.70ZM71.74 7.70C71.74 9.16 72.18 10.36 73.07 11.30C73.96 12.24 75.09 12.71 76.45 12.71C77.82 12.71 78.94 12.24 79.84 11.30C80.73 10.36 81.17 9.16 81.17 7.70C81.17 6.24 80.73 5.04 79.84 4.10C78.94 3.16 77.82 2.69 76.45 2.69C75.09 2.69 73.96 3.16 73.07 4.10C72.18 5.04 71.74 6.24 71.74 7.70ZM90.06 2.80L90.06 9.24C90.06 10.29 90.35 11.13 90.92 11.77C91.49 12.42 92.24 12.74 93.18 12.74C94.13 12.74 94.88 12.42 95.45 11.77C96.02 11.13 96.31 10.29 96.31 9.24L96.31 2.80L95.89 2.80L95.89 9.24C95.89 10.17 95.63 10.92 95.12 11.47C94.61 12.02 93.97 12.29 93.18 12.29C92.40 12.29 91.75 12.02 91.25 11.47C90.74 10.92 90.48 10.17 90.48 9.24L90.48 2.80Z"></path></g></svg>